<?xml version="1.0" standalone="no"?>
<!DOCTYPE svg PUBLIC "-//W3C//DTD SVG 20010904//EN"
 "http://www.w3.org/TR/2001/REC-SVG-20010904/DTD/svg10.dtd">
<svg version="1.0" xmlns="http://www.w3.org/2000/svg"
 width="225.000000pt" height="225.000000pt" viewBox="0 0 225.000000 225.000000"
 preserveAspectRatio="xMidYMid meet">
<metadata>
Created by potrace 1.10, written by Peter Selinger 2001-2011
</metadata>
<g transform="translate(0.000000,225.000000) scale(0.100000,-0.100000)"
fill="#000000" stroke="none">
<path d="M802 1983 c-40 -37 -41 -40 -44 -106 l-3 -68 -292 1 -293 1 0 -36 c0
-33 -2 -35 -32 -35 -18 0 -47 -9 -65 -20 -66 -40 -64 -15 -64 -703 1 -592 2
-623 19 -647 32 -43 80 -64 144 -65 l58 0 0 -37 0 -38 120 0 120 0 0 38 0 37
655 0 655 0 0 -37 0 -38 120 0 120 0 0 38 0 37 58 0 c64 1 112 22 144 66 19
25 20 50 21 645 2 579 1 621 -16 652 -22 41 -72 72 -114 72 -31 0 -33 2 -33
35 l0 36 -292 -1 -293 -1 -1 67 c-2 66 -3 68 -45 106 l-42 38 -282 0 -282 0
-41 -37z m598 -18 c0 -13 -37 -15 -275 -15 -238 0 -275 2 -275 15 0 13 37 15
275 15 238 0 275 -2 275 -15z m-280 -55 c239 0 291 2 303 15 21 21 27 9 27
-59 l0 -61 -325 0 -325 0 0 61 c0 64 8 85 22 59 8 -13 49 -15 298 -15z m920
-610 c0 -294 -4 -477 -11 -510 -14 -66 -62 -127 -124 -159 -48 -25 -54 -26
-297 -29 l-248 -4 0 50 c0 84 -7 87 -235 87 -228 0 -235 -3 -235 -87 l0 -50
-248 4 c-243 3 -249 3 -297 29 -62 32 -110 93 -124 159 -7 33 -11 216 -11 510
l0 460 915 0 915 0 0 -460z m-1870 -48 c0 -525 0 -523 84 -608 79 -78 106 -84
403 -84 l244 0 6 -30 c3 -17 17 -39 31 -50 22 -18 41 -20 187 -20 146 0 165 2
187 20 14 11 28 33 31 50 l7 30 244 0 c294 0 323 6 403 86 83 83 83 82 83 606
0 445 0 448 20 448 36 0 77 -28 94 -64 15 -32 16 -92 14 -624 -3 -547 -4 -590
-21 -615 -10 -16 -29 -32 -43 -37 -16 -6 -415 -10 -1028 -10 -997 0 -1003 0
-1029 21 -15 11 -31 37 -37 57 -8 25 -10 222 -8 617 3 532 4 582 20 605 21 29
55 49 86 50 l22 0 0 -448z m810 -596 c0 -75 32 -96 145 -96 108 0 144 23 145
93 0 30 4 37 20 37 11 0 23 -7 26 -15 8 -19 -15 -145 -29 -162 -14 -18 -310
-18 -324 0 -14 17 -37 143 -29 162 3 8 15 15 26 15 16 0 20 -6 20 -34z m250 5
c0 -43 -31 -61 -105 -61 -74 0 -105 18 -105 61 l0 29 105 0 105 0 0 -29z
m-805 -371 c0 -12 -17 -16 -77 -18 -73 -3 -78 -2 -78 18 0 20 5 21 78 18 60
-2 77 -6 77 -18z m1555 0 c0 -18 -7 -20 -74 -20 -72 0 -94 8 -81 30 3 6 40 10
81 10 67 0 74 -2 74 -20z"/>
</g>
</svg>
